# This file uses centimeters as units for non-parametric coordinates.

mtllib FicheIndice03.mtl
g default
v -0.142881 -0.142881 0.074065
v -0.085729 -0.142881 0.074065
v -0.028576 -0.142881 0.074065
v 0.028576 -0.142881 0.074065
v 0.085729 -0.142881 0.074065
v 0.142881 -0.142881 0.074065
v -0.142881 -0.085729 0.027346
v -0.085729 -0.085729 0.027346
v -0.028576 -0.085729 0.027346
v 0.028576 -0.085729 0.027346
v 0.085729 -0.085729 0.027346
v 0.142881 -0.085729 0.027346
v -0.137451 -0.028576 0.004795
v -0.085729 -0.028576 0.004795
v -0.028576 -0.028576 0.004795
v 0.028576 -0.028576 0.004795
v 0.085729 -0.028576 0.004795
v 0.142881 -0.028576 0.004795
v -0.142881 0.028576 0.000000
v -0.085729 0.028576 0.000000
v -0.028576 0.028576 0.000000
v 0.028576 0.028576 0.000000
v 0.085729 0.028576 0.000000
v 0.142881 0.028576 0.004942
v -0.142881 0.085729 0.008881
v -0.085729 0.085729 0.000000
v -0.028576 0.085729 0.000000
v 0.028576 0.085729 0.000000
v 0.085729 0.085729 0.000000
v 0.133737 0.085729 0.011140
v -0.142881 0.142881 0.020873
v -0.085729 0.142881 0.000000
v -0.028576 0.142881 -0.005489
v 0.028576 0.142881 -0.005489
v 0.085729 0.142881 0.000000
v 0.142881 0.142881 0.013461
vt 0.000000 0.000000
vt 0.200000 0.000000
vt 0.400000 0.000000
vt 0.600000 0.000000
vt 0.800000 0.000000
vt 1.000000 0.000000
vt 0.000000 0.200000
vt 0.200000 0.200000
vt 0.400000 0.200000
vt 0.600000 0.200000
vt 0.800000 0.200000
vt 1.000000 0.200000
vt 0.000000 0.400000
vt 0.200000 0.400000
vt 0.400000 0.400000
vt 0.600000 0.400000
vt 0.800000 0.400000
vt 1.000000 0.400000
vt 0.000000 0.600000
vt 0.200000 0.600000
vt 0.400000 0.600000
vt 0.600000 0.600000
vt 0.800000 0.600000
vt 1.000000 0.600000
vt 0.000000 0.800000
vt 0.200000 0.800000
vt 0.400000 0.800000
vt 0.600000 0.800000
vt 0.800000 0.800000
vt 1.000000 0.800000
vt 0.000000 1.000000
vt 0.200000 1.000000
vt 0.400000 1.000000
vt 0.600000 1.000000
vt 0.800000 1.000000
vt 1.000000 1.000000
vn 0.000000 0.525248 0.850949
vn 0.000000 0.632897 0.774236
vn 0.000000 0.632897 0.774236
vn 0.000000 0.519856 0.854254
vn 0.000000 0.632897 0.774236
vn 0.000000 0.518269 0.855217
vn 0.000000 0.632897 0.774236
vn 0.000000 0.518269 0.855217
vn 0.000000 0.632897 0.774236
vn 0.000000 0.518269 0.855217
vn 0.000000 0.632897 0.774236
vn 0.000000 0.518269 0.855218
vn 0.000000 0.232404 0.972619
vn 0.000000 0.232673 0.972555
vn 0.000000 0.232673 0.972555
vn 0.000000 0.232673 0.972555
vn -0.010537 0.222681 0.974835
vn -0.021120 0.212595 0.976912
vn 0.040960 -0.001359 0.999160
vn 0.019649 0.021782 0.999570
vn 0.000000 0.041916 0.999121
vn 0.000000 0.041916 0.999121
vn -0.046870 0.016133 0.998771
vn -0.092703 -0.007997 0.995662
vn 0.167489 -0.089874 0.981769
vn 0.096005 -0.033474 0.994818
vn 0.011996 0.035988 0.999280
vn -0.011996 0.035988 0.999280
vn -0.104617 -0.003778 0.994505
vn -0.190197 -0.033067 0.981189
vn 0.152303 -0.028105 0.987934
vn 0.250623 -0.101012 0.962800
vn 0.023870 0.071891 0.997127
vn -0.023870 0.071891 0.997127
vn -0.135798 0.024016 0.990445
vn -0.227793 -0.001548 0.973708
s 1
g pasted__pPlane1 group24
usemtl initialShadingGroup
f 7/7/1 1/1/2 2/2/3 8/8/4
f 8/8/4 2/2/3 3/3/5 9/9/6
f 9/9/6 3/3/5 4/4/7 10/10/8
f 10/10/8 4/4/7 5/5/9 11/11/10
f 11/11/10 5/5/9 6/6/11 12/12/12
f 13/13/13 7/7/1 8/8/4 14/14/14
f 14/14/14 8/8/4 9/9/6 15/15/15
f 15/15/15 9/9/6 10/10/8 16/16/16
f 16/16/16 10/10/8 11/11/10 17/17/17
f 17/17/17 11/11/10 12/12/12 18/18/18
f 19/19/19 13/13/13 14/14/14 20/20/20
f 20/20/20 14/14/14 15/15/15 21/21/21
f 21/21/21 15/15/15 16/16/16 22/22/22
f 22/22/22 16/16/16 17/17/17 23/23/23
f 23/23/23 17/17/17 18/18/18 24/24/24
f 25/25/25 19/19/19 20/20/20 26/26/26
f 26/26/26 20/20/20 21/21/21 27/27/27
f 27/27/27 21/21/21 22/22/22 28/28/28
f 28/28/28 22/22/22 23/23/23 29/29/29
f 29/29/29 23/23/23 24/24/24 30/30/30
f 32/32/31 31/31/32 25/25/25 26/26/26
f 33/33/33 32/32/31 26/26/26 27/27/27
f 34/34/34 33/33/33 27/27/27 28/28/28
f 35/35/35 34/34/34 28/28/28 29/29/29
f 36/36/36 35/35/35 29/29/29 30/30/30
