# This file uses centimeters as units for non-parametric coordinates.

mtllib FicheIndice02.mtl
g default
v -0.142881 -0.142881 0.074065
v -0.085729 -0.142881 0.074065
v -0.028576 -0.142881 0.074065
v 0.028576 -0.142881 0.074065
v 0.085729 -0.131326 0.074065
v 0.142881 -0.111756 0.074065
v -0.142881 -0.085729 0.027346
v -0.085729 -0.085729 0.027346
v -0.028576 -0.085729 0.027346
v 0.028576 -0.085729 0.027346
v 0.085729 -0.085729 0.027346
v 0.142881 -0.085729 0.027346
v -0.142881 -0.028576 0.004795
v -0.085729 -0.028576 0.004795
v -0.028576 -0.028576 0.004795
v 0.028576 -0.028576 0.004795
v 0.085729 -0.028576 0.004795
v 0.142881 -0.028576 0.004795
v -0.142881 0.028576 0.000000
v -0.085729 0.028576 0.000000
v -0.028576 0.028576 0.000000
v 0.028576 0.028576 0.000000
v 0.085729 0.028576 0.000000
v 0.142881 0.028576 0.000000
v -0.142881 0.085729 0.000000
v -0.085729 0.085729 0.000000
v -0.028576 0.085729 0.000000
v 0.028576 0.085729 0.000000
v 0.085729 0.085729 0.000000
v 0.142881 0.085729 0.000000
v -0.142881 0.142881 0.000000
v -0.085729 0.142881 0.000000
v -0.028576 0.142881 0.000000
v 0.028576 0.142881 0.000000
v 0.085729 0.142881 0.000000
v 0.142881 0.142881 0.010773
vt 0.000000 0.000000
vt 0.200000 0.000000
vt 0.400000 0.000000
vt 0.600000 0.000000
vt 0.800000 0.000000
vt 1.000000 0.000000
vt 0.000000 0.200000
vt 0.200000 0.200000
vt 0.400000 0.200000
vt 0.600000 0.200000
vt 0.800000 0.200000
vt 1.000000 0.200000
vt 0.000000 0.400000
vt 0.200000 0.400000
vt 0.400000 0.400000
vt 0.600000 0.400000
vt 0.800000 0.400000
vt 1.000000 0.400000
vt 0.000000 0.600000
vt 0.200000 0.600000
vt 0.400000 0.600000
vt 0.600000 0.600000
vt 0.800000 0.600000
vt 1.000000 0.600000
vt 0.000000 0.800000
vt 0.200000 0.800000
vt 0.400000 0.800000
vt 0.600000 0.800000
vt 0.800000 0.800000
vt 1.000000 0.800000
vt 0.000000 1.000000
vt 0.200000 1.000000
vt 0.400000 1.000000
vt 0.600000 1.000000
vt 0.800000 1.000000
vt 1.000000 1.000000
vn 0.000000 0.518269 0.855217
vn 0.000000 0.632897 0.774236
vn 0.000000 0.632897 0.774236
vn 0.000000 0.518269 0.855217
vn 0.000000 0.632897 0.774236
vn 0.000000 0.518269 0.855217
vn -0.031215 0.651115 0.758337
vn -0.017997 0.527910 0.849110
vn -0.095070 0.720589 0.686813
vn -0.051956 0.565803 0.822902
vn -0.134643 0.786429 0.602828
vn -0.068830 0.596076 0.799972
vn 0.000000 0.232673 0.972555
vn 0.000000 0.232673 0.972555
vn 0.000000 0.232673 0.972555
vn 0.000000 0.232673 0.972555
vn 0.000000 0.232673 0.972555
vn 0.000000 0.232673 0.972555
vn 0.000000 0.041916 0.999121
vn 0.000000 0.041916 0.999121
vn 0.000000 0.041916 0.999121
vn 0.000000 0.041916 0.999121
vn 0.000000 0.041916 0.999121
vn 0.000000 0.041916 0.999121
vn 0.000000 0.000000 1.000000
vn 0.000000 0.000000 1.000000
vn 0.000000 0.000000 1.000000
vn 0.000000 0.000000 1.000000
vn -0.023549 -0.023549 0.999445
vn -0.047020 -0.047020 0.997787
vn 0.000000 0.000000 1.000000
vn 0.000000 0.000000 1.000000
vn 0.000000 0.000000 1.000000
vn 0.000000 0.000000 1.000000
vn -0.047020 -0.047020 0.997787
vn -0.093422 -0.093422 0.991234
s 1
g pasted__pPlane1 group23
usemtl initialShadingGroup
f 7/7/1 1/1/2 2/2/3 8/8/4
f 8/8/4 2/2/3 3/3/5 9/9/6
f 9/9/6 3/3/5 4/4/7 10/10/8
f 10/10/8 4/4/7 5/5/9 11/11/10
f 11/11/10 5/5/9 6/6/11 12/12/12
f 13/13/13 7/7/1 8/8/4 14/14/14
f 14/14/14 8/8/4 9/9/6 15/15/15
f 15/15/15 9/9/6 10/10/8 16/16/16
f 16/16/16 10/10/8 11/11/10 17/17/17
f 17/17/17 11/11/10 12/12/12 18/18/18
f 19/19/19 13/13/13 14/14/14 20/20/20
f 20/20/20 14/14/14 15/15/15 21/21/21
f 21/21/21 15/15/15 16/16/16 22/22/22
f 22/22/22 16/16/16 17/17/17 23/23/23
f 23/23/23 17/17/17 18/18/18 24/24/24
f 25/25/25 19/19/19 20/20/20 26/26/26
f 26/26/26 20/20/20 21/21/21 27/27/27
f 27/27/27 21/21/21 22/22/22 28/28/28
f 28/28/28 22/22/22 23/23/23 29/29/29
f 29/29/29 23/23/23 24/24/24 30/30/30
f 32/32/31 31/31/32 25/25/25 26/26/26
f 33/33/33 32/32/31 26/26/26 27/27/27
f 34/34/34 33/33/33 27/27/27 28/28/28
f 35/35/35 34/34/34 28/28/28 29/29/29
f 36/36/36 35/35/35 29/29/29 30/30/30
