# This file uses centimeters as units for non-parametric coordinates.

mtllib HotelRoomWall.mtl
g default
v -7.610235 0.002849 5.664309
v 7.610235 0.002849 5.664309
v -7.610235 3.333465 5.664309
v 7.610235 3.333465 5.664309
v -7.610235 3.333465 -5.664309
v 7.610235 3.333465 -5.664309
v -7.610235 0.002849 -5.664309
v 7.610235 0.002849 -5.664309
v -7.610235 3.333465 0.522062
v 7.610235 3.333465 0.522062
v 7.610235 0.002849 0.522061
v -7.610235 0.002849 0.522061
v -7.610235 0.002849 -0.546787
v 7.610235 0.002849 -0.546787
v 7.610235 3.333465 -0.546786
v -7.610235 3.333465 -0.546786
v -7.610235 2.715402 5.664309
v 7.610235 2.715402 5.664309
v 7.610235 2.715402 0.522062
v 7.610235 2.715402 -0.546786
v 7.610235 2.715402 -5.664309
v -7.610235 2.715402 -5.664309
v -7.610235 2.715402 -0.546786
v -7.610235 2.715402 0.522062
v -2.876410 0.002849 5.664309
v -2.876410 2.715402 5.664309
v -2.876410 3.333465 5.664309
v -2.876410 3.333465 0.522062
v -2.876410 3.333465 -0.546786
v -2.876410 3.333465 -5.664309
v -2.876410 2.715402 -5.664309
v -2.876410 0.002849 -5.664309
v 0.871590 0.002849 5.664309
v 0.871590 2.715402 5.664309
v 0.871590 3.333465 5.664309
v 0.871590 3.333465 0.522062
v 0.871590 3.333465 -0.546786
v 0.871590 3.333465 -5.664309
v 0.871590 2.715402 -5.664309
v 0.871590 0.002849 -5.664309
v 7.610235 1.372913 -0.546787
v 7.610235 1.372913 -5.664309
v 0.871590 1.372913 -5.664309
v -2.876410 1.372913 -5.664309
v -7.610235 1.372913 -5.664309
v -7.610235 1.372913 -0.546787
v -7.610235 1.372913 0.522062
v -7.610235 1.372913 5.664309
v -2.876410 1.372913 5.664309
v 0.871590 1.372913 5.664309
v 7.610235 1.372913 5.664309
v 7.610235 1.372913 0.522062
v 7.610235 0.002849 1.526558
v 7.610235 1.372913 1.526558
v 7.610235 2.715402 1.526559
v 7.610235 3.333465 1.526559
v 0.871590 3.333465 1.526559
v -2.876410 3.333465 1.526559
v -7.610235 3.333465 1.526559
v -7.610235 2.715402 1.526559
v -7.610235 1.372913 1.526558
v -7.610235 0.002849 1.526558
v -1.496328 0.002849 5.664309
v -1.496328 1.372913 5.664309
v -1.496328 2.715402 5.664309
v -1.496328 3.333465 5.664309
v -1.496328 3.333465 1.526559
v -1.496328 3.333465 0.522062
v -1.496329 3.333465 -0.546786
v -1.496328 3.333465 -5.664309
v -1.496329 2.715402 -5.664309
vt 0.375000 0.000000
vt 0.625000 0.000000
vt 0.375000 0.250000
vt 0.625000 0.250000
vt 0.375000 0.500000
vt 0.625000 0.500000
vt 0.375000 0.750000
vt 0.625000 0.750000
vt 0.875000 0.000000
vt 0.875000 0.250000
vt 0.125000 0.000000
vt 0.125000 0.250000
vt 0.253914 0.250000
vt 0.375000 0.371086
vt 0.625000 0.371086
vt 0.746086 0.250000
vt 0.746086 0.000000
vt 0.253914 0.000000
vt 0.230326 0.000000
vt 0.769674 0.000000
vt 0.625000 0.394674
vt 0.769674 0.250000
vt 0.230326 0.250000
vt 0.375000 0.394674
vt 0.375000 0.203607
vt 0.625000 0.203607
vt 0.746086 0.203607
vt 0.769674 0.203607
vt 0.625000 0.546393
vt 0.875000 0.203607
vt 0.125000 0.203607
vt 0.375000 0.546393
vt 0.230326 0.203607
vt 0.253914 0.203607
vt 0.452754 0.000000
vt 0.452754 0.203607
vt 0.452754 0.250000
vt 0.452754 0.371086
vt 0.452754 0.394674
vt 0.452754 0.500000
vt 0.452754 0.546393
vt 0.452754 0.750000
vt 0.514316 0.000000
vt 0.514316 0.203607
vt 0.514316 0.250000
vt 0.514316 0.371086
vt 0.514316 0.394674
vt 0.514316 0.500000
vt 0.514316 0.546393
vt 0.514316 0.750000
vt 0.769674 0.102839
vt 0.625000 0.647161
vt 0.875000 0.102839
vt 0.514316 0.647161
vt 0.452754 0.647161
vt 0.125000 0.102839
vt 0.375000 0.647161
vt 0.230326 0.102839
vt 0.253914 0.102839
vt 0.375000 0.102839
vt 0.452754 0.102839
vt 0.514316 0.102839
vt 0.625000 0.102839
vt 0.746086 0.102839
vt 0.722433 0.000000
vt 0.722433 0.102839
vt 0.722433 0.203607
vt 0.722433 0.250000
vt 0.625000 0.347433
vt 0.514316 0.347433
vt 0.452754 0.347433
vt 0.375000 0.347433
vt 0.277567 0.250000
vt 0.277567 0.203607
vt 0.277567 0.102839
vt 0.277567 0.000000
vt 0.475422 0.000000
vt 0.475422 0.102839
vt 0.475422 0.203607
vt 0.475422 0.250000
vt 0.475422 0.347433
vt 0.475422 0.371086
vt 0.475422 0.394674
vt 0.475422 0.500000
vt 0.475422 0.546393
vn 0.000000 0.000000 -1.000000
vn 0.000000 0.000000 -1.000000
vn 0.000000 0.000000 -1.000000
vn 0.000000 0.000000 -1.000000
vn 0.000000 -1.000000 -0.000000
vn 0.000000 -1.000000 0.000000
vn 0.000000 -1.000000 -0.000000
vn 0.000000 -1.000000 -0.000000
vn 0.000000 0.000000 1.000000
vn 0.000000 0.000000 1.000000
vn 0.000000 0.000000 1.000000
vn 0.000000 0.000000 1.000000
vn -1.000000 0.000001 0.000000
vn -1.000000 0.000000 0.000000
vn -1.000000 0.000000 0.000000
vn -1.000000 0.000001 0.000000
vn 1.000000 0.000000 0.000000
vn 1.000000 0.000001 0.000000
vn 1.000000 0.000001 0.000000
vn 1.000000 0.000000 0.000000
vn 0.000000 -1.000000 0.000000
vn 0.000000 -1.000000 0.000000
vn -1.000000 0.000000 0.000000
vn -1.000000 0.000000 0.000000
vn 1.000000 0.000000 0.000000
vn 1.000000 0.000000 0.000000
vn -1.000000 0.000000 0.000000
vn -1.000000 0.000000 0.000000
vn 0.000000 -1.000000 0.000000
vn 0.000000 -1.000000 0.000000
vn 1.000000 0.000000 0.000000
vn 1.000000 0.000000 0.000000
vn 0.000000 0.000000 -1.000000
vn 0.000000 0.000000 -1.000000
vn -1.000000 -0.000000 0.000000
vn -1.000000 -0.000000 0.000000
vn -1.000000 0.000000 0.000000
vn -1.000000 0.000000 0.000000
vn 0.000000 0.000000 1.000000
vn 0.000000 0.000000 1.000000
vn 1.000000 0.000000 0.000000
vn 1.000000 0.000000 0.000000
vn 1.000000 -0.000000 0.000000
vn 0.000000 0.000000 -1.000000
vn 0.000000 0.000000 -1.000000
vn 0.000000 0.000000 -1.000000
vn 0.000000 0.000000 -1.000000
vn 0.000000 -1.000000 0.000000
vn 0.000000 -1.000000 0.000000
vn 0.000000 -1.000000 0.000000
vn 0.000000 -1.000000 0.000000
vn 0.000000 -1.000000 -0.000000
vn 0.000000 -1.000000 -0.000000
vn 0.000000 -1.000000 -0.000000
vn 0.000000 -1.000000 -0.000000
vn 0.000000 0.000000 1.000000
vn 0.000000 0.000000 1.000000
vn 0.000000 0.000000 1.000000
vn 0.000000 0.000000 1.000000
vn 0.000000 0.000000 -1.000000
vn 0.000000 0.000000 -1.000000
vn 0.000000 0.000000 -1.000000
vn 0.000000 0.000000 -1.000000
vn 0.000000 -1.000000 0.000000
vn 0.000000 -1.000000 0.000000
vn 0.000000 -1.000000 0.000000
vn 0.000000 -1.000000 -0.000000
vn 0.000000 0.000000 1.000000
vn 0.000000 0.000000 1.000000
vn 0.000000 0.000000 1.000000
vn 0.000000 0.000000 1.000000
vn -1.000000 0.000000 0.000000
vn -1.000000 0.000000 0.000000
vn 0.000000 0.000000 1.000000
vn 0.000000 0.000000 1.000000
vn 0.000000 0.000000 1.000000
vn 0.000000 0.000000 1.000000
vn 1.000000 0.000000 0.000000
vn 1.000000 -0.000000 0.000000
vn 1.000000 -0.000000 0.000000
vn 1.000000 0.000000 0.000000
vn 1.000000 0.000000 0.000000
vn 0.000000 0.000000 -1.000000
vn 0.000000 0.000000 -1.000000
vn 0.000000 0.000000 -1.000000
vn 0.000000 0.000000 -1.000000
vn 0.000000 0.000000 -1.000000
vn 0.000000 0.000000 -1.000000
vn -1.000000 -0.000000 0.000000
vn -1.000000 -0.000001 0.000000
vn -1.000000 0.000000 0.000000
vn -1.000000 0.000000 0.000000
vn -1.000000 0.000000 0.000000
vn -1.000000 0.000000 0.000000
vn 0.000000 -1.000000 0.000000
vn 0.000000 -1.000000 0.000000
vn 0.000000 -1.000000 0.000000
vn 0.000000 -1.000000 0.000000
vn 0.000000 -1.000000 0.000000
vn 1.000000 0.000000 0.000000
vn 1.000000 0.000000 0.000000
vn 1.000000 0.000000 0.000000
vn 1.000000 0.000000 0.000000
s 1
g Room HotelRoomWall
usemtl initialShadingGroup
f 17/25/1 3/3/2 27/37/3 26/36/4
s 2
f 9/14/5 16/24/6 29/39/7 28/38/8
s 3
f 5/5/9 22/32/10 31/41/11 30/40/12
s 4
f 10/16/13 15/22/14 20/28/15 19/27/16
s 5
f 16/23/17 9/13/18 24/34/19 23/33/20
s 2
f 58/71/21 59/72/22 9/14/5 28/38/8
s 4
f 55/67/23 56/68/24 10/16/13 19/27/16
s 5
f 9/13/18 59/73/25 60/74/26 24/34/19
s 4
f 15/22/14 6/10/27 21/30/28 20/28/15
s 2
f 16/24/6 5/5/29 30/40/30 29/39/7
s 5
f 22/31/31 5/12/32 16/23/17 23/33/20
s 1
f 48/60/33 17/25/1 26/36/4 49/61/34
s 4
f 54/66/35 55/67/23 19/27/16 52/64/36
f 21/30/28 42/53/37 41/51/38 20/28/15
s 3
f 22/32/10 45/57/39 44/55/40 31/41/11
s 5
f 45/56/41 22/31/31 23/33/20 46/58/42
f 24/34/19 47/59/43 46/58/42 23/33/20
s 1
f 65/79/44 66/80/45 35/45/46 34/44/47
s 2
f 67/81/48 68/82/49 36/46/50 57/70/51
f 68/82/49 69/83/52 37/47/53 36/46/50
f 69/83/52 70/84/54 38/48/55 37/47/53
s 3
f 70/84/56 71/85/57 39/49/58 38/48/59
s 1
f 34/44/47 18/26/60 51/63/61 50/62/62
f 35/45/46 4/4/63 18/26/60 34/44/47
s 2
f 36/46/50 10/15/64 56/69/65 57/70/51
f 37/47/53 15/21/66 10/15/64 36/46/50
f 38/48/55 6/6/67 15/21/66 37/47/53
s 3
f 39/49/58 21/29/68 6/6/69 38/48/59
f 42/52/70 21/29/68 39/49/58 43/54/71
s 4
f 42/53/37 8/9/72 14/20/73 41/51/38
s 3
f 40/50/74 8/8/75 42/52/70 43/54/71
f 32/42/76 40/50/74 43/54/71 44/55/40
f 45/57/39 7/7/77 32/42/76 44/55/40
s 5
f 7/11/78 45/56/41 46/58/42 13/19/79
f 47/59/43 12/18/80 13/19/79 46/58/42
f 61/75/81 62/76/82 12/18/80 47/59/43
s 1
f 1/1/83 48/60/33 49/61/34 25/35/84
f 50/62/62 33/43/85 63/77/86 64/78/87
f 51/63/61 2/2/88 33/43/85 50/62/62
s 4
f 53/65/89 54/66/35 52/64/36 11/17/90
f 2/2/91 51/63/92 54/66/35 53/65/89
f 51/63/92 18/26/93 55/67/23 54/66/35
f 18/26/93 4/4/94 56/68/24 55/67/23
s 2
f 57/70/51 56/69/65 4/4/95 35/45/96
f 66/80/97 67/81/48 57/70/51 35/45/96
f 3/3/98 59/72/22 58/71/21 27/37/99
s 5
f 60/74/26 59/73/25 3/3/100 17/25/101
f 17/25/101 48/60/102 61/75/81 60/74/26
f 48/60/102 1/1/103 62/76/82 61/75/81
s 1
f 64/78/87 63/77/86 25/35/84 49/61/34
f 26/36/4 65/79/44 64/78/87 49/61/34
f 27/37/3 66/80/45 65/79/44 26/36/4
s 2
f 58/71/21 67/81/48 66/80/97 27/37/99
f 28/38/8 68/82/49 67/81/48 58/71/21
f 29/39/7 69/83/52 68/82/49 28/38/8
f 30/40/30 70/84/54 69/83/52 29/39/7
s 3
f 31/41/11 71/85/57 70/84/56 30/40/12
g default
v -7.610235 -0.054725 5.664309
v 7.610235 -0.054725 5.664309
v -7.610235 0.004050 5.664309
v 7.610235 0.004050 5.664309
v -7.610235 0.004050 -5.664309
v 7.610235 0.004050 -5.664309
v -7.610235 -0.054725 -5.664309
v 7.610235 -0.054725 -5.664309
vt 0.375000 0.000000
vt 0.625000 0.000000
vt 0.375000 0.250000
vt 0.625000 0.250000
vt 0.375000 0.500000
vt 0.625000 0.500000
vt 0.375000 0.750000
vt 0.625000 0.750000
vt 0.375000 1.000000
vt 0.625000 1.000000
vt 0.875000 0.000000
vt 0.875000 0.250000
vt 0.125000 0.000000
vt 0.125000 0.250000
vn 0.000000 0.000000 1.000000
vn 0.000000 0.000000 1.000000
vn 0.000000 0.000000 1.000000
vn 0.000000 0.000000 1.000000
vn 0.000000 1.000000 0.000000
vn 0.000000 1.000000 0.000000
vn 0.000000 1.000000 0.000000
vn 0.000000 1.000000 0.000000
vn 0.000000 0.000000 -1.000000
vn 0.000000 0.000000 -1.000000
vn 0.000000 0.000000 -1.000000
vn 0.000000 0.000000 -1.000000
vn 0.000000 -1.000000 0.000000
vn 0.000000 -1.000000 0.000000
vn 0.000000 -1.000000 0.000000
vn 0.000000 -1.000000 0.000000
vn 1.000000 0.000000 0.000000
vn 1.000000 0.000000 0.000000
vn 1.000000 0.000000 0.000000
vn 1.000000 0.000000 0.000000
vn -1.000000 0.000000 0.000000
vn -1.000000 0.000000 0.000000
vn -1.000000 0.000000 0.000000
vn -1.000000 0.000000 0.000000
s off
g HotelRoomWall Floor
usemtl initialShadingGroup
f 72/86/104 73/87/105 75/89/106 74/88/107
f 74/88/108 75/89/109 77/91/110 76/90/111
f 76/90/112 77/91/113 79/93/114 78/92/115
f 78/92/116 79/93/117 73/95/118 72/94/119
f 73/87/120 79/96/121 77/97/122 75/89/123
f 78/98/124 72/86/125 74/88/126 76/99/127
g default
v -3.811245 -0.017038 -0.012767
v -3.482247 -0.017038 -0.012767
v -3.811245 3.362800 -0.012767
v -3.482247 3.362800 -0.012767
v -3.811245 3.362800 -5.654617
v -3.482247 3.362800 -5.654617
v -3.811245 -0.017038 -5.654617
v -3.482247 -0.017038 -5.654617
v -3.811245 -0.017038 -0.012767
v -3.482247 -0.017038 -0.012767
v -3.811245 3.362800 -0.012767
v -3.482247 3.362800 -0.012767
v -3.811245 3.362800 -5.654617
v -3.482247 3.362800 -5.654617
v -3.811245 -0.017038 -5.654617
v -3.482247 -0.017038 -5.654617
v -3.477581 0.000732 0.063525
v -3.477581 3.380569 0.063525
v -7.608625 3.380569 0.063525
v -7.608625 0.000732 0.063525
v -3.477581 2.680781 0.063525
v -7.608625 2.680781 0.063525
v -6.352032 3.380569 0.063525
v -6.352032 2.680781 0.063525
v -6.352032 0.000732 0.063525
v -4.905085 3.380569 0.063525
v -4.905085 2.680781 0.063525
v -4.905085 0.000732 0.063525
v -4.905085 2.680781 -0.039960
v -4.905085 0.000732 -0.039960
v -3.477581 0.000732 -0.039960
v -3.477581 2.680781 -0.039960
v -4.905085 3.380569 -0.039960
v -3.477581 3.380569 -0.039960
v -6.352032 2.680781 -0.039960
v -7.608625 2.680781 -0.039960
v -6.352032 3.380569 -0.039960
v -7.608625 3.380569 -0.039960
v -7.608625 0.000732 -0.039960
v -6.352032 0.000732 -0.039960
v -7.542050 -0.017038 5.605707
v -2.242576 -0.017038 5.605707
v -7.542050 3.362800 5.605707
v -2.242576 3.362800 5.605707
v -7.542050 3.362800 1.945622
v -2.242576 3.362800 1.945622
v -7.542050 -0.017038 1.945622
v -2.242576 -0.017038 1.945622
v 5.454036 -0.017038 5.646163
v 7.588966 -0.017038 5.646163
v 5.454036 3.362800 5.646163
v 7.588966 3.362800 5.646163
v 5.454036 3.362800 1.271046
v 7.588966 3.362800 1.271046
v 5.454036 -0.017038 1.271046
v 7.588966 -0.017038 1.271046
v 1.467785 -0.017038 -1.286761
v 7.588966 -0.017038 -1.286761
v 1.467785 3.362800 -1.286761
v 7.588966 3.362800 -1.286761
v 1.467785 3.362800 -5.661879
v 7.588966 3.362800 -5.661879
v 1.467785 -0.017038 -5.661879
v 7.588966 -0.017038 -5.661879
vt 0.375000 0.000000
vt 0.625000 0.000000
vt 0.375000 0.250000
vt 0.625000 0.250000
vt 0.375000 0.500000
vt 0.625000 0.500000
vt 0.375000 0.750000
vt 0.625000 0.750000
vt 0.375000 1.000000
vt 0.625000 1.000000
vt 0.875000 0.000000
vt 0.875000 0.250000
vt 0.125000 0.000000
vt 0.125000 0.250000
vt 0.375000 0.000000
vt 0.625000 0.000000
vt 0.625000 0.250000
vt 0.375000 0.250000
vt 0.625000 0.500000
vt 0.375000 0.500000
vt 0.625000 0.750000
vt 0.375000 0.750000
vt 0.625000 1.000000
vt 0.375000 1.000000
vt 0.875000 0.000000
vt 0.875000 0.250000
vt 0.125000 0.000000
vt 0.125000 0.250000
vt 0.288611 0.198238
vt 0.375000 0.198238
vt 0.375000 0.000000
vt 0.288611 0.000000
vt 0.288611 0.250000
vt 0.375000 0.250000
vt 0.125000 0.198238
vt 0.125000 0.250000
vt 0.201046 0.250000
vt 0.201046 0.198238
vt 0.125000 0.000000
vt 0.201046 0.000000
vt 0.288611 0.198238
vt 0.288611 0.000000
vt 0.375000 0.000000
vt 0.375000 0.198238
vt 0.288611 0.250000
vt 0.375000 0.250000
vt 0.125000 0.198238
vt 0.201046 0.198238
vt 0.201046 0.250000
vt 0.125000 0.250000
vt 0.125000 0.000000
vt 0.201046 0.000000
vt 0.288611 0.198238
vt 0.288611 0.000000
vt 0.375000 0.000000
vt 0.375000 0.198238
vt 0.375000 0.250000
vt 0.288611 0.250000
vt 0.201046 0.250000
vt 0.125000 0.250000
vt 0.125000 0.198238
vt 0.125000 0.000000
vt 0.201046 0.000000
vt 0.201046 0.198238
vt 0.375000 0.000000
vt 0.625000 0.000000
vt 0.625000 0.250000
vt 0.375000 0.250000
vt 0.625000 0.500000
vt 0.375000 0.500000
vt 0.625000 0.750000
vt 0.375000 0.750000
vt 0.625000 1.000000
vt 0.375000 1.000000
vt 0.875000 0.000000
vt 0.875000 0.250000
vt 0.125000 0.000000
vt 0.125000 0.250000
vt 0.375000 0.000000
vt 0.625000 0.000000
vt 0.625000 0.250000
vt 0.375000 0.250000
vt 0.625000 0.500000
vt 0.375000 0.500000
vt 0.625000 0.750000
vt 0.375000 0.750000
vt 0.625000 1.000000
vt 0.375000 1.000000
vt 0.875000 0.000000
vt 0.875000 0.250000
vt 0.125000 0.000000
vt 0.125000 0.250000
vt 0.375000 0.000000
vt 0.625000 0.000000
vt 0.625000 0.250000
vt 0.375000 0.250000
vt 0.625000 0.500000
vt 0.375000 0.500000
vt 0.625000 0.750000
vt 0.375000 0.750000
vt 0.625000 1.000000
vt 0.375000 1.000000
vt 0.875000 0.000000
vt 0.875000 0.250000
vt 0.125000 0.000000
vt 0.125000 0.250000
vn 0.000000 0.000000 1.000000
vn 0.000000 0.000000 1.000000
vn 0.000000 0.000000 1.000000
vn 0.000000 0.000000 1.000000
vn 0.000000 1.000000 0.000000
vn 0.000000 1.000000 0.000000
vn 0.000000 1.000000 0.000000
vn 0.000000 1.000000 0.000000
vn 0.000000 0.000000 -1.000000
vn 0.000000 0.000000 -1.000000
vn 0.000000 0.000000 -1.000000
vn 0.000000 0.000000 -1.000000
vn 0.000000 -1.000000 0.000000
vn 0.000000 -1.000000 0.000000
vn 0.000000 -1.000000 0.000000
vn 0.000000 -1.000000 0.000000
vn 1.000000 0.000000 0.000000
vn 1.000000 0.000000 0.000000
vn 1.000000 0.000000 0.000000
vn 1.000000 0.000000 0.000000
vn -1.000000 0.000000 0.000000
vn -1.000000 0.000000 0.000000
vn -1.000000 0.000000 0.000000
vn -1.000000 0.000000 0.000000
vn 0.000000 0.000000 1.000000
vn 0.000000 0.000000 1.000000
vn 0.000000 0.000000 1.000000
vn 0.000000 0.000000 1.000000
vn 0.000000 1.000000 0.000000
vn 0.000000 1.000000 0.000000
vn 0.000000 1.000000 0.000000
vn 0.000000 1.000000 0.000000
vn 0.000000 0.000000 -1.000000
vn 0.000000 0.000000 -1.000000
vn 0.000000 0.000000 -1.000000
vn 0.000000 0.000000 -1.000000
vn 0.000000 -1.000000 0.000000
vn 0.000000 -1.000000 0.000000
vn 0.000000 -1.000000 0.000000
vn 0.000000 -1.000000 0.000000
vn 1.000000 0.000000 0.000000
vn 1.000000 0.000000 0.000000
vn 1.000000 0.000000 0.000000
vn 1.000000 0.000000 0.000000
vn -1.000000 0.000000 0.000000
vn -1.000000 0.000000 0.000000
vn -1.000000 0.000000 0.000000
vn -1.000000 0.000000 0.000000
vn -0.000000 -0.000000 -1.000000
vn 0.000000 -0.000000 -1.000000
vn 0.000000 0.000000 -1.000000
vn 0.000000 0.000000 -1.000000
vn -0.000000 -0.000000 -1.000000
vn 0.000000 -0.000000 -1.000000
vn 0.000000 -0.000000 -1.000000
vn 0.000000 -0.000000 -1.000000
vn -0.000000 -0.000000 -1.000000
vn -0.000000 -0.000000 -1.000000
vn 0.000000 0.000000 -1.000000
vn 0.000000 0.000000 -1.000000
vn 0.000000 0.000000 1.000000
vn 0.000000 -0.000000 1.000000
vn 0.000000 -0.000000 1.000000
vn 0.000000 -0.000000 1.000000
vn 0.000000 0.000000 1.000000
vn 0.000000 0.000000 1.000000
vn 0.000000 0.000000 1.000000
vn 0.000000 0.000000 1.000000
vn 0.000000 0.000000 1.000000
vn 0.000000 0.000000 1.000000
vn 0.000000 -0.000000 1.000000
vn 0.000000 -0.000000 1.000000
vn -1.000000 0.000000 0.000000
vn -1.000000 0.000000 0.000000
vn -1.000000 0.000000 0.000000
vn -1.000000 0.000000 0.000000
vn 0.000000 -1.000000 0.000000
vn 0.000000 -1.000000 0.000000
vn 0.000000 -1.000000 0.000000
vn 0.000000 -1.000000 0.000000
vn 1.000000 0.000000 0.000000
vn 1.000000 0.000000 0.000000
vn 1.000000 0.000000 0.000000
vn 1.000000 0.000000 0.000000
vn 1.000000 -0.000000 0.000000
vn 1.000000 -0.000000 0.000000
vn 0.000000 1.000000 0.000000
vn 0.000000 1.000000 0.000000
vn 0.000000 1.000000 0.000000
vn 0.000000 1.000000 0.000000
vn 0.000000 1.000000 0.000000
vn 0.000000 1.000000 0.000000
vn 0.000000 1.000000 0.000000
vn 0.000000 1.000000 0.000000
vn -1.000000 0.000000 0.000000
vn -1.000000 0.000000 0.000000
vn -1.000000 -0.000000 0.000000
vn -1.000000 -0.000000 0.000000
vn 0.000000 -1.000000 0.000000
vn 0.000000 -1.000000 0.000000
vn 0.000000 -1.000000 0.000000
vn 0.000000 -1.000000 0.000000
vn 1.000000 0.000000 0.000000
vn 1.000000 0.000000 0.000000
vn 1.000000 0.000000 0.000000
vn 1.000000 0.000000 0.000000
vn -1.000000 -0.000000 0.000000
vn -1.000000 -0.000000 0.000000
vn 0.000000 -1.000000 0.000000
vn 0.000000 -1.000000 0.000000
vn 0.000000 -1.000000 0.000000
vn 0.000000 -1.000000 0.000000
vn 0.000000 0.000000 1.000000
vn 0.000000 0.000000 1.000000
vn 0.000000 0.000000 1.000000
vn 0.000000 0.000000 1.000000
vn 0.000000 1.000000 0.000000
vn 0.000000 1.000000 0.000000
vn 0.000000 1.000000 0.000000
vn 0.000000 1.000000 0.000000
vn 0.000000 0.000000 -1.000000
vn 0.000000 0.000000 -1.000000
vn 0.000000 0.000000 -1.000000
vn 0.000000 0.000000 -1.000000
vn 0.000000 -1.000000 0.000000
vn 0.000000 -1.000000 0.000000
vn 0.000000 -1.000000 0.000000
vn 0.000000 -1.000000 0.000000
vn 1.000000 0.000000 0.000000
vn 1.000000 0.000000 0.000000
vn 1.000000 0.000000 0.000000
vn 1.000000 0.000000 0.000000
vn -1.000000 0.000000 0.000000
vn -1.000000 0.000000 0.000000
vn -1.000000 0.000000 0.000000
vn -1.000000 0.000000 0.000000
vn 0.000000 0.000000 1.000000
vn 0.000000 0.000000 1.000000
vn 0.000000 0.000000 1.000000
vn 0.000000 0.000000 1.000000
vn 0.000000 1.000000 0.000000
vn 0.000000 1.000000 0.000000
vn 0.000000 1.000000 0.000000
vn 0.000000 1.000000 0.000000
vn 0.000000 0.000000 -1.000000
vn 0.000000 0.000000 -1.000000
vn 0.000000 0.000000 -1.000000
vn 0.000000 0.000000 -1.000000
vn 0.000000 -1.000000 0.000000
vn 0.000000 -1.000000 0.000000
vn 0.000000 -1.000000 0.000000
vn 0.000000 -1.000000 0.000000
vn 1.000000 0.000000 0.000000
vn 1.000000 0.000000 0.000000
vn 1.000000 0.000000 0.000000
vn 1.000000 0.000000 0.000000
vn -1.000000 0.000000 0.000000
vn -1.000000 0.000000 0.000000
vn -1.000000 0.000000 0.000000
vn -1.000000 0.000000 0.000000
vn 0.000000 0.000000 1.000000
vn 0.000000 0.000000 1.000000
vn 0.000000 0.000000 1.000000
vn 0.000000 0.000000 1.000000
vn 0.000000 1.000000 0.000000
vn 0.000000 1.000000 0.000000
vn 0.000000 1.000000 0.000000
vn 0.000000 1.000000 0.000000
vn 0.000000 0.000000 -1.000000
vn 0.000000 0.000000 -1.000000
vn 0.000000 0.000000 -1.000000
vn 0.000000 0.000000 -1.000000
vn 0.000000 -1.000000 0.000000
vn 0.000000 -1.000000 0.000000
vn 0.000000 -1.000000 0.000000
vn 0.000000 -1.000000 0.000000
vn 1.000000 0.000000 0.000000
vn 1.000000 0.000000 0.000000
vn 1.000000 0.000000 0.000000
vn 1.000000 0.000000 0.000000
vn -1.000000 0.000000 0.000000
vn -1.000000 0.000000 0.000000
vn -1.000000 0.000000 0.000000
vn -1.000000 0.000000 0.000000
s off
g HotelRoomWall InsideWall
usemtl initialShadingGroup
f 80/100/128 81/101/129 83/103/130 82/102/131
f 82/102/132 83/103/133 85/105/134 84/104/135
f 84/104/136 85/105/137 87/107/138 86/106/139
f 86/106/140 87/107/141 81/109/142 80/108/143
f 81/101/144 87/110/145 85/111/146 83/103/147
f 86/112/148 80/100/149 82/102/150 84/113/151
f 88/114/152 89/115/153 91/116/154 90/117/155
f 90/117/156 91/116/157 93/118/158 92/119/159
f 92/119/160 93/118/161 95/120/162 94/121/163
f 94/121/164 95/120/165 89/122/166 88/123/167
f 89/115/168 95/124/169 93/125/170 91/116/171
f 94/126/172 88/114/173 90/117/174 92/127/175
s 1
f 108/128/176 111/129/177 110/130/178 109/131/179
f 112/132/180 113/133/181 111/129/177 108/128/176
f 115/134/182 117/135/183 116/136/184 114/137/185
f 118/138/186 115/134/182 114/137/185 119/139/187
f 116/136/184 112/132/180 108/128/176 114/137/185
s 2
f 106/140/188 107/141/189 96/142/190 100/143/191
f 105/144/192 106/140/188 100/143/191 97/145/193
f 101/146/194 103/147/195 102/148/196 98/149/197
f 99/150/198 104/151/199 103/147/195 101/146/194
f 102/148/196 103/147/195 106/140/188 105/144/192
s off
f 106/152/200 108/128/201 109/131/202 107/153/203
f 107/153/204 109/131/205 110/130/206 96/154/207
s 4
f 96/154/208 110/130/209 111/129/210 100/155/211
f 100/155/211 111/129/210 113/133/212 97/156/213
s 5
f 97/156/214 113/133/215 112/132/216 105/157/217
f 102/158/218 116/136/219 117/135/220 98/159/221
s 6
f 98/159/222 117/135/223 115/134/224 101/160/225
s off
f 99/161/226 118/138/227 119/139/228 104/162/229
f 104/162/230 119/139/231 114/137/232 103/163/233
s 6
f 101/160/225 115/134/224 118/138/234 99/161/235
s off
f 103/163/236 114/137/237 108/128/238 106/152/239
s 5
f 105/157/217 112/132/216 116/136/219 102/158/218
s off
f 120/164/240 121/165/241 123/166/242 122/167/243
f 122/167/244 123/166/245 125/168/246 124/169/247
f 124/169/248 125/168/249 127/170/250 126/171/251
f 126/171/252 127/170/253 121/172/254 120/173/255
f 121/165/256 127/174/257 125/175/258 123/166/259
f 126/176/260 120/164/261 122/167/262 124/177/263
f 128/178/264 129/179/265 131/180/266 130/181/267
f 130/181/268 131/180/269 133/182/270 132/183/271
f 132/183/272 133/182/273 135/184/274 134/185/275
f 134/185/276 135/184/277 129/186/278 128/187/279
f 129/179/280 135/188/281 133/189/282 131/180/283
f 134/190/284 128/178/285 130/181/286 132/191/287
f 136/192/288 137/193/289 139/194/290 138/195/291
f 138/195/292 139/194/293 141/196/294 140/197/295
f 140/197/296 141/196/297 143/198/298 142/199/299
f 142/199/300 143/198/301 137/200/302 136/201/303
f 137/193/304 143/202/305 141/203/306 139/194/307
f 142/204/308 136/192/309 138/195/310 140/205/311
